<svg width="48" height="48" viewBox="0 0 48 48" fill="none" xmlns="http://www.w3.org/2000/svg">
<rect width="48" height="48" rx="4" fill="white"/>
<path d="M30.4523 23.6262C30.4417 21.8229 31.2587 20.4639 32.9087 19.4617C31.9859 18.1397 30.5898 17.4125 28.7495 17.2724C27.007 17.1349 25.1006 18.2877 24.4025 18.2877C23.6648 18.2877 21.9779 17.32 20.6505 17.32C17.9112 17.3623 15 19.504 15 23.8616C15 25.1492 15.2353 26.4792 15.706 27.8489C16.3353 29.6522 18.6039 34.0705 20.9704 33.9991C22.2079 33.9701 23.0831 33.1213 24.6934 33.1213C26.2561 33.1213 27.0652 33.9991 28.4454 33.9991C30.833 33.9648 32.8849 29.9483 33.4825 28.1398C30.2804 26.63 30.4523 23.7188 30.4523 23.6262ZM27.6733 15.5616C29.0139 13.9699 28.8922 12.5209 28.8526 12C27.668 12.0687 26.2984 12.8065 25.5183 13.7134C24.659 14.6864 24.154 15.8895 24.2624 17.2459C25.5421 17.3438 26.7108 16.6854 27.6733 15.5616Z" fill="#020203"/>
</svg>
