<svg width="48" height="48" viewBox="0 0 48 48" fill="none" xmlns="http://www.w3.org/2000/svg">
<rect width="48" height="48" rx="4" fill="white"/>
<path d="M34 17.3043C34 16.4348 33.6667 15.6667 33 15C32.3333 14.3333 31.5652 14 30.6957 14H17.3043C16.4348 14 15.6667 14.3333 15 15C14.3333 15.6667 14 16.4348 14 17.3043V30.6957C14 31.5652 14.3333 32.3333 15 33C15.6667 33.6667 16.4348 34 17.3043 34H24V26.4348H21.5652V23.1304H24V21.8261C24 20.6957 24.3696 19.7029 25.1087 18.8478C25.8478 17.9928 26.7246 17.5652 27.7391 17.5652H30.4348V20.8696H27.7391C27.5942 20.8696 27.4565 20.9565 27.3261 21.1304C27.1957 21.3043 27.1304 21.5217 27.1304 21.7826V23.1304H30.4348V26.4348H27.1304V34H30.6957C31.5652 34 32.3333 33.6667 33 33C33.6667 32.3333 34 31.5652 34 30.6957V17.3043Z" fill="#020203"/>
</svg>
