<svg width="48" height="48" viewBox="0 0 48 48" fill="none" xmlns="http://www.w3.org/2000/svg">
<rect width="48" height="48" rx="4" fill="white"/>
<path d="M33.8055 22.0415H33V22H24V26H29.6515C28.827 28.3285 26.6115 30 24 30C20.6865 30 18 27.3135 18 24C18 20.6865 20.6865 18 24 18C25.5295 18 26.921 18.577 27.9805 19.5195L30.809 16.691C29.023 15.0265 26.634 14 24 14C18.4775 14 14 18.4775 14 24C14 29.5225 18.4775 34 24 34C29.5225 34 34 29.5225 34 24C34 23.3295 33.931 22.675 33.8055 22.0415Z" fill="#020203"/>
<path d="M15.1533 19.3455L18.4388 21.755C19.3278 19.554 21.4808 18 24.0003 18C25.5298 18 26.9213 18.577 27.9808 19.5195L30.8093 16.691C29.0233 15.0265 26.6343 14 24.0003 14C20.1593 14 16.8283 16.1685 15.1533 19.3455Z" fill="#020203"/>
<path d="M24.0002 34C26.5832 34 28.9302 33.0115 30.7047 31.404L27.6097 28.785C26.5719 29.5742 25.3039 30.001 24.0002 30C21.3992 30 19.1907 28.3415 18.3587 26.027L15.0977 28.5395C16.7527 31.778 20.1137 34 24.0002 34Z" fill="#020203"/>
<path d="M33.8055 22.0415H33V22H24V26H29.6515C29.2571 27.1082 28.5467 28.0766 27.608 28.7855L27.6095 28.7845L30.7045 31.4035C30.4855 31.6025 34 29 34 24C34 23.3295 33.931 22.675 33.8055 22.0415Z" fill="#020203"/>
</svg>
